<?xml version="1.0" encoding="UTF-8"?>
<svg id="Layer_2" data-name="Layer 2" xmlns="http://www.w3.org/2000/svg" viewBox="0 0 177.43 177.53">
  <defs>
    <style>
      .cls-1 {
        fill: #161f2d;
      }

      .cls-1, .cls-2 {
        fill-rule: evenodd;
      }

      .cls-2 {
        stroke: #fff;
        stroke-miterlimit: 10;
        stroke-width: 5px;
      }
    </style>
  </defs>
  <g id="Capa_1" data-name="Capa 1">
    <g>
      <path class="cls-2" d="M3.39,173.2c.37.37,4.12,1.12,8.24,1.5,9.73.75,29.39.19,40.62-1.12,24.33-3.18,48.66-12.35,67.19-25.27,8.98-6.36,23.4-20.78,29.76-29.76,13.48-19.09,22.46-44.36,25.08-71.31,1.12-11.98.75-42.67-.75-43.42-1.68-.94-20.4-1.68-31.63-1.12-45.29,2.06-82.17,18.72-106.68,47.91C18.18,70.82,8.07,95.53,3.58,127.35c-1.31,8.05-1.5,44.55-.19,45.86ZM125.05,129.78c-20.78,19.84-49.41,31.07-85.16,33.69-26.76,1.87-26.95,1.87-26.39-19.84.75-25.83,5.43-45.11,15.72-65.13,11.23-21.9,27.7-38.37,49.97-49.6,20.4-10.29,44.17-15.72,69.81-15.72,14.41,0,15.72,1.68,14.97,17.78-2.06,44.92-13.85,74.87-38.93,98.82ZM83.69,124.35v11.23l6.93-.37c12.73-.94,22.09-5.05,30.88-13.85,8.98-8.8,14.04-20.78,14.04-33.13v-5.43h-11.23v5.8c0,11.23-5.05,21.71-13.85,28.45-6.18,4.68-11.6,6.55-20.03,7.11l-6.74.19ZM84.62,114.43c-8.61-1.31-15.72-6.55-19.65-14.6-2.25-4.49-2.43-5.61-2.43-11.6,0-5.61.37-7.3,2.06-10.86,2.43-5.43,7.67-10.48,13.1-13.1,3.56-1.68,5.24-2.06,11.23-2.06s7.49.19,11.23,2.06c4.68,2.25,10.11,7.67,12.35,12.17,9.55,18.9-6.93,41.18-27.89,37.99ZM46.82,67.83c-3.56,7.3-4.3,10.67-5.05,19.47l-.56,6.36h11.23v-4.49c0-20.78,15.91-37.06,36.5-37.06h5.05v-11.23h-3.93c-7.3,0-15.53,2.06-22.09,5.24-8.8,4.87-17.03,13.1-21.15,21.71Z"/>
      <path class="cls-1" d="M3.39,173.2c.37.37,4.12,1.12,8.24,1.5,9.73.75,29.39.19,40.62-1.12,24.33-3.18,48.66-12.35,67.19-25.27,8.98-6.36,23.4-20.78,29.76-29.76,13.48-19.09,22.46-44.36,25.08-71.31,1.12-11.98.75-42.67-.75-43.42-1.68-.94-20.4-1.68-31.63-1.12-45.29,2.06-82.17,18.72-106.68,47.91C18.18,70.82,8.07,95.53,3.58,127.35c-1.31,8.05-1.5,44.55-.19,45.86ZM125.05,129.78c-20.78,19.84-49.41,31.07-85.16,33.69-26.76,1.87-26.95,1.87-26.39-19.84.75-25.83,5.43-45.11,15.72-65.13,11.23-21.9,27.7-38.37,49.97-49.6,20.4-10.29,44.17-15.72,69.81-15.72,14.41,0,15.72,1.68,14.97,17.78-2.06,44.92-13.85,74.87-38.93,98.82ZM83.69,124.35v11.23l6.93-.37c12.73-.94,22.09-5.05,30.88-13.85,8.98-8.8,14.04-20.78,14.04-33.13v-5.43h-11.23v5.8c0,11.23-5.05,21.71-13.85,28.45-6.18,4.68-11.6,6.55-20.03,7.11l-6.74.19ZM84.62,114.43c-8.61-1.31-15.72-6.55-19.65-14.6-2.25-4.49-2.43-5.61-2.43-11.6,0-5.61.37-7.3,2.06-10.86,2.43-5.43,7.67-10.48,13.1-13.1,3.56-1.68,5.24-2.06,11.23-2.06s7.49.19,11.23,2.06c4.68,2.25,10.11,7.67,12.35,12.17,9.55,18.9-6.93,41.18-27.89,37.99ZM46.82,67.83c-3.56,7.3-4.3,10.67-5.05,19.47l-.56,6.36h11.23v-4.49c0-20.78,15.91-37.06,36.5-37.06h5.05v-11.23h-3.93c-7.3,0-15.53,2.06-22.09,5.24-8.8,4.87-17.03,13.1-21.15,21.71Z"/>
    </g>
  </g>
</svg>