<?xml version="1.0" encoding="utf-8"?>
<!-- Generator: Adobe Illustrator 27.9.0, SVG Export Plug-In . SVG Version: 6.00 Build 0)  -->
<svg version="1.1" id="Capa_1" xmlns="http://www.w3.org/2000/svg" xmlns:xlink="http://www.w3.org/1999/xlink" x="0px" y="0px"
	 viewBox="0 0 1366 191.8" style="enable-background:new 0 0 1366 191.8;" xml:space="preserve">
<style type="text/css">
	.st0{fill-rule:evenodd;clip-rule:evenodd;fill:#FFFFFF;}
	.st1{fill:#FFFFFF;}
</style>
<path class="st0" d="M367,67.9l30.3,36.4c16.7,20,30.4,36.4,30.6,36.4c0.2,0,0.3-20.3,0.3-45.1V50.5h-3.6H421L421,86.4l-0.1,35.9
	L390.6,86C374,66.1,360.2,49.7,360,49.7c-0.2,0-0.3,20.3-0.3,45.1V140h3.6h3.6l0.1-36L367,67.9z M222.5,141c-8-1.4-16.6-5.9-23-11.8
	l-2.3-2.2l2.3-2.4l2.3-2.4l2.6,2.4c7.6,7,15.9,10.2,26.4,10.2c8,0,13.6-2,18-6.3c3.8-3.8,5.7-9.5,4.8-14.9c-0.8-4.6-3-7.9-7.5-10.7
	c-3.6-2.3-7.4-3.6-18.2-6.3c-5.7-1.4-11.6-3.1-13.1-3.7c-7.3-3-11.4-7.7-12.9-14.4c-0.8-3.5-0.8-5.7,0-8.8
	c1.6-6.8,6.5-12.5,13.9-16.1c4.7-2.3,7.4-3,13.1-3.2c8.4-0.4,16.9,1.7,23.6,5.7l3.1,1.9l-2.2,2.5c-1.2,1.3-2.3,2.5-2.3,2.5
	c-0.1,0-1-0.6-2-1.2c-4.6-3-11.6-4.7-18.2-4.7c-7.7,0-12.7,1.9-17.4,6.5c-3.7,3.7-4.7,6-4.4,10.9c0.3,5.8,2.8,9.5,8.1,11.9
	c1.4,0.6,7,2.2,12.3,3.5c11.3,2.7,13.9,3.5,17.7,5.4c7.8,3.9,12.1,8.5,13.6,14.9c0.7,2.8,0.6,9.2-0.2,12.2
	c-2.5,9.5-10.5,16.4-21.7,18.7C235.2,141.7,226.6,141.7,222.5,141z M84.1,142c0.2,0.2,2.2,0.6,4.4,0.8c5.2,0.4,15.7,0.1,21.7-0.6
	c13-1.7,26-6.6,35.9-13.5c4.8-3.4,12.5-11.1,15.9-15.9c7.2-10.2,12-23.7,13.4-38.1c0.6-6.4,0.4-22.8-0.4-23.2
	c-0.9-0.5-10.9-0.9-16.9-0.6c-24.2,1.1-43.9,10-57,25.6c-9.1,10.8-14.5,24-16.9,41C83.5,121.8,83.4,141.3,84.1,142z M149.1,118.8
	c-11.1,10.6-26.4,16.6-45.5,18c-14.3,1-14.4,1-14.1-10.6c0.4-13.8,2.9-24.1,8.4-34.8c6-11.7,14.8-20.5,26.7-26.5
	c10.9-5.5,23.6-8.4,37.3-8.4c7.7,0,8.4,0.9,8,9.5C168.8,90,162.5,106,149.1,118.8z M127,115.9v3v3l3.7-0.2
	c6.8-0.5,11.8-2.7,16.5-7.4c4.8-4.7,7.5-11.1,7.5-17.7v-2.9h-3h-3v3.1c0,6-2.7,11.6-7.4,15.2c-3.3,2.5-6.2,3.5-10.7,3.8L127,115.9z
	 M127.5,110.6c-4.6-0.7-8.4-3.5-10.5-7.8c-1.2-2.4-1.3-3-1.3-6.2c0-3,0.2-3.9,1.1-5.8c1.3-2.9,4.1-5.6,7-7c1.9-0.9,2.8-1.1,6-1.1
	c3.3,0,4,0.1,6,1.1c2.5,1.2,5.4,4.1,6.6,6.5C147.5,100.4,138.7,112.3,127.5,110.6z M107.3,85.7c-1.9,3.9-2.3,5.7-2.7,10.4l-0.3,3.4
	h3h3v-2.4c0-11.1,8.5-19.8,19.5-19.8h2.7v-3v-3h-2.1c-3.9,0-8.3,1.1-11.8,2.8C113.9,76.7,109.5,81.1,107.3,85.7z M303.9,126.7v-13.2
	l17.5-31.1l17.5-31.1h3.9c2.1,0,3.8,0.1,3.8,0.2c0,0.1-8,14.3-17.8,31.6L311,114.5v12.7V140h-3.6h-3.6V126.7z M454.5,49.8
	c-0.3,0.1-8.8,85.6-8.9,89.3c0,0.8,0.1,0.9,3.6,0.9c3.4,0,3.6,0,3.6-0.9c0-0.8,6.2-67,6.5-69c0-0.5,5.7,8.6,14.7,23.6
	c8.1,13.5,14.8,24.4,15.1,24.5c0.3,0,7-11,15.1-24.4c13.7-22.8,14.6-24.3,14.8-23.1c0.1,0.8,1.6,15.8,3.2,33.4
	c1.6,17.7,3.1,32.9,3.2,34l0.2,1.9h3.6h3.5l-0.2-1.7c-0.1-1-2.1-21.2-4.4-45c-2.3-23.8-4.2-43.4-4.4-43.5c-0.1-0.1-0.4,0-0.6,0.2
	c-0.2,0.2-7.8,12.8-16.9,28.1c-9.1,15.2-16.7,27.9-17,28.2c-0.4,0.4-4.4-6-17.5-28C462.5,62.6,454.7,49.8,454.5,49.8z M545.4,138.1
	c7.9-18.8,37.8-88.1,38.1-88.1c0.2,0,9,20.2,19.6,44.9l19.3,44.9l-3.6,0.1c-2,0-3.7,0-3.9-0.2c-0.2-0.2-7.2-16.9-15.7-37.1
	c-8.5-20.2-15.6-36.8-15.8-36.7c-0.2,0-7.3,16.7-15.8,37l-15.5,36.9l-3.8,0.1l-3.8,0.1L545.4,138.1z M648.6,116.9
	c-8.4,12.5-15.4,22.7-15.4,22.8c0,0.1,1.9,0.2,4.1,0.2h4.1l13.2-19.6c7.2-10.8,13.3-19.6,13.5-19.6c0.2,0,6.3,8.8,13.5,19.6
	l13.1,19.6h4.2h4.2l-15.4-22.8l-15.4-22.8l5.7-8.6c1.4-2.1,3.5-5.3,5.9-8.7l0-0.1l0,0c2.8-4.2,5.9-8.8,8.5-12.7l8.7-13h-4.1H693
	l-14.5,21.5c-1.8,2.6-3.9,5.7-6.1,9l-0.5,0.8l-0.3,0.4l-0.1,0.1C664,94.1,654.9,107.6,648.6,116.9z M283.3,78.2
	c-8.2-14.4-14.8-26.3-14.9-26.5c-0.1-0.2,1.6-0.4,3.8-0.4h3.9l13.1,23.3l13.1,23.2l-1.7,3.2c-0.9,1.7-1.9,3.2-2.1,3.3
	C298.2,104.3,291.4,92.6,283.3,78.2z M633.9,52.5c0.4,0.6,5.9,8.7,12.2,18c6.3,9.3,11.6,16.8,11.7,16.7c0.1-0.1,1.1-1.4,2.1-2.9
	l1.9-2.8l-5.7-8.4c-2-3-4.7-6.9-6.9-10.3c-1.2-1.8-2.3-3.5-3.2-4.7l-4.5-6.6h-4.2h-4.2L633.9,52.5z"/>
<g>
	<rect x="744.9" y="94.4" class="st1" width="6.6" height="45.6"/>
	<polygon class="st1" points="800.3,124.6 771,93.4 771,96.2 771,140 777.6,140 777.6,109.9 806.9,140.8 806.9,138.1 806.9,94 
		800.3,94 	"/>
	<polygon class="st1" points="1172.6,124.6 1143.2,93.4 1143.2,96.2 1143.2,140 1149.8,140 1149.8,109.9 1179.1,140.8 1179.1,138.1 
		1179.1,94 1172.6,94 	"/>
	<polygon class="st1" points="823.8,100.8 837.1,100.8 837.1,140 843.6,140 843.6,100.8 856.8,100.8 856.8,94.4 823.8,94.4 	"/>
	<polygon class="st1" points="873.7,140 902.4,140 902.4,133.6 880.2,133.6 880.2,121 899.6,121 899.6,114.6 880.2,114.6 
		880.2,100.8 902.4,100.8 902.4,94.4 873.7,94.4 	"/>
	<polygon class="st1" points="926.8,94.7 920.2,94.7 920.2,140 949,140 949,133.6 926.8,133.6 	"/>
	<polygon class="st1" points="972.4,94.7 965.8,94.7 965.8,140 994.6,140 994.6,133.6 972.4,133.6 	"/>
	<rect x="1011.4" y="94.4" class="st1" width="6.6" height="45.6"/>
	<path class="st1" d="M1057.3,122.4h14c-0.3,1.5-0.8,2.8-1.4,4c-0.8,1.7-1.9,3.1-3.1,4.3c-1.2,1.2-2.7,2.1-4.3,2.7
		c-3.4,1.3-7.5,1.3-11-0.3c-1.8-0.8-3.5-1.9-4.9-3.4c-1.4-1.5-2.5-3.3-3.4-5.4c-0.8-2.1-1.2-4.5-1.2-7.1c0-2.6,0.4-5,1.2-7.1
		c0.8-2.1,2-3.9,3.4-5.4c1.4-1.5,3-2.6,4.9-3.4c1.8-0.8,3.8-1.2,5.8-1.2c2.5,0,4.9,0.5,7,1.5c2.1,1,3.7,2.3,4.9,4l0.7,0.9l6.3-2
		l-1.1-1.7c-1.7-2.8-4.2-5-7.3-6.6c-3.1-1.6-6.6-2.4-10.5-2.4c-2.9,0-5.8,0.6-8.4,1.7c-2.6,1.1-5,2.7-7,4.8c-2,2.1-3.6,4.5-4.8,7.4
		c-1.2,2.9-1.8,6.1-1.8,9.6c0,3.5,0.6,6.7,1.8,9.6c1.2,2.9,2.8,5.4,4.8,7.4c2,2.1,4.4,3.7,7,4.8c2.7,1.1,5.5,1.7,8.4,1.7
		c3,0,5.7-0.5,8.3-1.6c2.5-1.1,4.8-2.6,6.7-4.6c1.9-2,3.4-4.4,4.5-7.1c1.1-2.7,1.7-5.8,1.9-9.1l0.1-2.2h-21.4V122.4z"/>
	<polygon class="st1" points="1095.7,140 1124.4,140 1124.4,133.6 1102.3,133.6 1102.3,121 1121.7,121 1121.7,114.6 1102.3,114.6 
		1102.3,100.8 1124.4,100.8 1124.4,94.4 1095.7,94.4 	"/>
	<path class="st1" d="M1206.7,104.7c1.4-1.5,3-2.6,4.9-3.4c1.8-0.8,3.8-1.2,5.8-1.2c2.6,0,5.1,0.6,7.2,1.6c2.1,1.1,3.8,2.6,5,4.4
		l0.6,1l6.4-1.9l-1-1.7c-1.8-3-4.3-5.5-7.4-7.2c-3.2-1.7-6.8-2.6-10.9-2.6c-2.9,0-5.8,0.6-8.4,1.7c-2.6,1.1-5,2.7-7,4.8
		c-2,2.1-3.6,4.5-4.8,7.4c-1.2,2.9-1.8,6.1-1.8,9.6c0,3.5,0.6,6.7,1.8,9.6c1.2,2.9,2.8,5.4,4.8,7.4c2,2.1,4.4,3.7,7,4.8
		c2.7,1.1,5.5,1.7,8.4,1.7c3.9,0,7.5-0.9,10.7-2.6c3.2-1.7,5.8-4.2,7.6-7.3l1-1.7l-6.4-1.9l-0.6,1c-1.2,1.9-3,3.4-5.1,4.5
		c-3.9,1.9-8.8,2.2-13,0.4c-1.8-0.8-3.5-1.9-4.9-3.4c-1.4-1.5-2.5-3.3-3.4-5.4c-0.8-2.1-1.2-4.5-1.2-7.1c0-2.6,0.4-5,1.2-7.1
		C1204.1,108,1205.3,106.1,1206.7,104.7z"/>
	<polygon class="st1" points="1281.6,100.8 1281.6,94.4 1252.8,94.4 1252.8,140 1281.6,140 1281.6,133.6 1259.4,133.6 1259.4,121 
		1278.8,121 1278.8,114.6 1259.4,114.6 1259.4,100.8 	"/>
</g>
</svg>
